HIERARCHY
ROOT Hips
{
	OFFSET -0.001795 -0.223333 0.028219
	CHANNELS 6 Xposition Yposition Zposition Zrotation Yrotation Xrotation 
	JOINT LeftUpLeg
	{
		OFFSET 0.069520 -0.091406 -0.006815
		CHANNELS 3 Zrotation Yrotation Xrotation
		JOINT LeftLeg
		{
			OFFSET 0.034277 -0.375199 -0.004496
			CHANNELS 3 Zrotation Yrotation Xrotation
			JOINT LeftFoot
			{
				OFFSET -0.013596 -0.397961 -0.043693
				CHANNELS 3 Zrotation Yrotation Xrotation
				JOINT LeftToe
				{
					OFFSET 0.026358 -0.055791 0.119288
					CHANNELS 3 Zrotation Yrotation Xrotation
					End Site
					{
						OFFSET 0.000000 0.000000 0.000000
					}
				}
			}
		}
	}
	JOINT RightUpLeg
	{
		OFFSET -0.067670 -0.090522 -0.004320
		CHANNELS 3 Zrotation Yrotation Xrotation
		JOINT RightLeg
		{
			OFFSET -0.038290 -0.382569 -0.008850
			CHANNELS 3 Zrotation Yrotation Xrotation
			JOINT RightFoot
			{
				OFFSET 0.015774 -0.398415 -0.042312
				CHANNELS 3 Zrotation Yrotation Xrotation
				JOINT RightToe
				{
					OFFSET -0.025372 -0.048144 0.123348
					CHANNELS 3 Zrotation Yrotation Xrotation
					End Site
					{
						OFFSET 0.000000 0.000000 0.000000
					}
				}
			}
		}
	}
	JOINT Spine
	{
		OFFSET -0.002533 0.108963 -0.026696
		CHANNELS 3 Zrotation Yrotation Xrotation
		JOINT Spine1
		{
			OFFSET 0.005487 0.135180 0.001092
			CHANNELS 3 Zrotation Yrotation Xrotation
			JOINT Spine2
			{
				OFFSET 0.001457 0.052922 0.025425
				CHANNELS 3 Zrotation Yrotation Xrotation
				JOINT Neck
				{
					OFFSET -0.002778 0.213870 -0.042857
					CHANNELS 3 Zrotation Yrotation Xrotation
					JOINT Head
					{
						OFFSET 0.005152 0.064970 0.051349
						CHANNELS 3 Zrotation Yrotation Xrotation
						End Site
						{
							OFFSET 0.000000 0.000000 0.000000
						}
					}
				}
				JOINT LeftShoulder
				{
					OFFSET 0.078845 0.121749 -0.034090
					CHANNELS 3 Zrotation Yrotation Xrotation
					JOINT LeftArm
					{
						OFFSET 0.090977 0.030469 -0.008868
						CHANNELS 3 Zrotation Yrotation Xrotation
						JOINT LeftForeArm
						{
							OFFSET 0.259612 -0.012772 -0.027456
							CHANNELS 3 Zrotation Yrotation Xrotation
							JOINT LeftHand
							{
								OFFSET 0.249234 0.008986 -0.001171
								CHANNELS 3 Zrotation Yrotation Xrotation
								End Site
								{
									OFFSET 0.000000 0.000000 0.000000
								}
							}
						}
					}
				}
				JOINT RightShoulder
				{
					OFFSET -0.081759 0.118833 -0.038615
					CHANNELS 3 Zrotation Yrotation Xrotation
					JOINT RightArm
					{
						OFFSET -0.096012 0.032551 -0.009143
						CHANNELS 3 Zrotation Yrotation Xrotation
						JOINT RightForeArm
						{
							OFFSET -0.253742 -0.013329 -0.021401
							CHANNELS 3 Zrotation Yrotation Xrotation
							JOINT RightHand
							{
								OFFSET -0.255298 0.007772 -0.005559
								CHANNELS 3 Zrotation Yrotation Xrotation
								End Site
								{
									OFFSET 0.000000 0.000000 0.000000
								}
							}
						}
					}
				}
			}
		}
	}
}
MOTION
Frames: 5
Frame Time: 0.050000
-0.020430 0.936951 -0.011720 -7.294618 -12.420853 9.114999 16.433638 2.018074 -22.369987 -2.617568 0.588681 15.035464 -2.971812 -2.052303 11.002939 0.000000 0.000000 0.000000 -4.132433 1.250833 -13.229350 3.801453 -0.062558 9.842953 -3.644656 -14.807208 18.463111 0.000000 0.000000 0.000000 -15.424625 4.747716 29.661579 0.639826 0.013299 -17.110076 -8.010808 3.576334 24.494226 -8.370587 7.325607 -4.512264 0.000000 0.000000 0.000000 -22.073913 -27.247622 15.372953 -18.267483 -54.699351 2.818183 -5.248172 -31.382122 2.820342 0.000000 0.000000 0.000000 -10.366683 13.668151 4.084071 42.748782 11.543180 -1.980247 105.253971 71.710162 90.708140 0.000000 0.000000 0.000000 
-0.020636 0.936257 -0.012141 -7.179979 -12.289252 9.163233 16.346397 2.005594 -22.564606 -2.637790 0.592030 15.110588 -2.999866 -2.127271 10.886636 0.000000 0.000000 0.000000 -4.297563 1.254009 -13.353581 3.790292 -0.055786 10.069168 -3.497844 -14.464120 17.982365 0.000000 0.000000 0.000000 -15.253940 4.674517 29.648840 0.643020 0.015055 -17.088153 -8.209015 3.262199 24.561620 -8.458765 7.340681 -4.972194 0.000000 0.000000 0.000000 -21.303318 -27.286600 15.275740 -19.237424 -55.119052 3.316251 -4.887059 -31.411658 2.738264 0.000000 0.000000 0.000000 -11.374880 13.346368 3.957113 43.238980 12.396660 -1.724017 105.708068 71.830013 91.213413 0.000000 0.000000 0.000000 
-0.020650 0.935774 -0.012436 -6.966841 -12.124315 9.073305 16.127344 1.941232 -22.619466 -2.636497 0.585796 15.138409 -3.051138 -2.223911 10.810630 0.000000 0.000000 0.000000 -4.325418 1.255856 -13.431116 3.380723 0.020822 10.464002 -3.417588 -14.221618 17.534248 0.000000 0.000000 0.000000 -14.989412 4.573278 29.720887 0.452060 0.079061 -17.323614 -8.381982 3.207845 24.725111 -8.513342 7.402829 -4.910672 0.000000 0.000000 0.000000 -21.305835 -27.348213 15.304901 -20.169003 -55.231657 3.727735 -4.670933 -32.180740 2.763778 0.000000 0.000000 0.000000 -11.983265 13.456923 3.931255 43.068628 13.049704 -1.512265 106.678714 72.292297 92.771425 0.000000 0.000000 0.000000 
-0.020397 0.935468 -0.012647 -6.679413 -11.829756 9.097315 15.956665 1.885696 -22.792792 -2.888402 0.639678 15.052528 -3.166408 -2.377268 10.854545 0.000000 0.000000 0.000000 -4.496903 1.263046 -13.649116 3.354024 0.021921 10.545422 -3.992108 -15.159001 17.903343 0.000000 0.000000 0.000000 -14.940297 4.499792 29.549342 0.297946 0.126264 -17.177296 -8.416733 3.384978 24.833683 -8.571964 7.422120 -5.451279 0.000000 0.000000 0.000000 -20.538946 -27.216474 14.932728 -22.185985 -56.154537 4.796666 -4.104731 -32.371003 2.641088 0.000000 0.000000 0.000000 -13.307036 12.930824 3.687728 43.316316 13.967667 -1.160778 106.955955 72.686229 93.732965 0.000000 0.000000 0.000000 
-0.020027 0.935163 -0.012866 -6.412862 -11.373805 8.915993 15.667241 1.757096 -22.644354 -2.910954 0.616553 14.704021 -3.333646 -2.643199 10.794263 0.000000 0.000000 0.000000 -4.666266 1.227123 -13.432334 3.402940 0.002861 10.528495 -4.546936 -15.927911 17.790025 0.000000 0.000000 0.000000 -14.781160 4.379776 29.501475 -0.060786 0.236965 -17.149880 -8.348005 3.492969 24.777414 -8.488455 7.386045 -5.238421 0.000000 0.000000 0.000000 -20.853123 -26.958883 14.764290 -23.827415 -56.671481 5.637189 -3.678964 -32.964258 2.593002 0.000000 0.000000 0.000000 -14.460900 13.172303 3.615708 43.140774 14.741236 -0.830711 106.054408 72.893123 93.167025 0.000000 0.000000 0.000000 
